<svg xmlns:xlink="http://www.w3.org/1999/xlink" xmlns="http://www.w3.org/2000/svg" style="width:100%;height:100%;" viewBox="0 0 50 22" preserveAspectRatio="none" width="50" height="22"><defs><svg width="50" height="22" viewBox="-1 -1 50 22" fill="none" id="svg-1527924729_1682">
<path d="M22.479 17.6414C18.1283 17.6414 15.9147 15.1575 15.9147 12.0527C15.9147 8.37659 18.917 5.04822 23.2677 5.04822C27.6184 5.04822 29.832 7.53208 29.832 10.6369C29.832 14.313 26.8297 17.6414 22.479 17.6414ZM22.6571 13.692C24.1837 13.692 25.1505 12.3508 25.1505 10.8604C25.1505 9.66819 24.3618 8.99755 23.0896 8.99755C21.5631 8.99755 20.5962 10.3388 20.5962 11.8291C20.5962 13.0214 21.385 13.692 22.6571 13.692Z" fill="#FFFFFF"/>
<path d="M34.4663 17.3433H29.8866L33.6267 0.775989H38.2064L34.4663 17.3433Z" fill="#FFFFFF"/>
<path fill-rule="evenodd" clip-rule="evenodd" d="M8.97642 17.6414C7.57706 17.6414 6.20315 17.1446 5.41442 16.0765L5.13623 17.3362L0 20L0.554479 17.3362L4.29494 0.775989H8.87465L7.55162 6.61305C8.62022 5.47048 9.61249 5.04822 10.8846 5.04822C13.6325 5.04822 15.4643 6.81176 15.4643 10.0408C15.4643 13.3691 13.3526 17.6414 8.97642 17.6414ZM10.732 10.9846C10.732 12.5246 9.61249 13.692 8.16225 13.692C7.34808 13.692 6.61024 13.394 6.12682 12.8724L6.83922 9.81722C7.37352 9.29561 7.98415 8.99755 8.69655 8.99755C9.79059 8.99755 10.732 9.79239 10.732 10.9846Z" fill="#FFFFFF"/>
<path d="M42.9712 17.6414C40.3251 17.6414 38.4424 16.6975 38.4424 14.6111C38.4424 14.4372 38.4678 14.0149 38.5441 13.6672L39.5364 9.2211H37.501L38.3915 5.34628H40.4269L41.1647 2.06759L46.2917 0L45.7445 2.07265L45.0066 5.34628H47.5L46.6095 9.2211H44.1161L43.4546 12.152C43.4037 12.3756 43.3783 12.624 43.3783 12.7233C43.3783 13.2946 43.7345 13.692 44.5232 13.692C44.7522 13.692 45.0829 13.6175 45.1593 13.5678V17.1446C44.6758 17.4675 43.8108 17.6414 42.9712 17.6414Z" fill="#FFFFFF"/>
</svg></defs><use href="#svg-1527924729_1682"/></svg>