<svg xmlns="http://www.w3.org/2000/svg" viewBox="0 0 512 168">
  <path fill="#000" d="M79.5 67.3v25.3H136c-1.7 13.8-6.2 24-13 31.1-8.4 8.4-21.4 17.6-43.5 17.6-34.7 0-61.8-28-61.8-62.7s27.1-62.7 61.8-62.7c18.7 0 32.4 7.4 42.5 16.9l17.9-17.9C125.6 1.9 109.2 0 79.5 0 35.9 0 0 35.1 0 78.6s35.9 78.6 79.5 78.6c23.3 0 40.9-7.7 54.6-22 14.1-14.1 18.5-34 18.5-50 0-5-0.4-9.6-1.1-13.4H79.5zM194.8 51.6c-29 0-52.6 22-52.6 52.4s23.6 52.4 52.6 52.4 52.6-22 52.6-52.4-23.6-52.4-52.6-52.4zm0 84.1c-15.9 0-29.6-13.1-29.6-31.8s13.7-31.8 29.6-31.8 29.6 13.1 29.6 31.8-13.7 31.8-29.6 31.8zM310.6 51.6c-29 0-52.6 22-52.6 52.4s23.6 52.4 52.6 52.4 52.6-22 52.6-52.4-23.6-52.4-52.6-52.4zm0 84.1c-15.9 0-29.6-13.1-29.6-31.8s13.7-31.8 29.6-31.8 29.6 13.1 29.6 31.8-13.7 31.8-29.6 31.8zM458.5 51.6c-27.3 0-49.6 23.4-49.6 52.4 0 31.3 22.3 52.4 49.6 52.4 14.8 0 25.3-5.8 32.8-14.2v11.2c0 19.4-11.8 31-29.6 31-14.9 0-23.9-10.8-27.6-19.9l-20 8.3c5.9 12.6 21.5 28.1 47.6 28.1 28.4 0 51.2-17.8 51.2-55.1V54.6h-21.6v9.6c-7.4-8-18.2-12.6-32.8-12.6zm2.4 84.1c-15.9 0-28.5-13.4-28.5-31.8s12.6-31.8 28.5-31.8 29.6 13.4 29.6 31.8-13.7 31.8-29.6 31.8zM390.3 0h23v154.4h-23z"/>
</svg>