<?xml version="1.0" encoding="UTF-8"?>
<svg id="katman_1" xmlns="http://www.w3.org/2000/svg" version="1.1" viewBox="0 0 841.9 595.3">
  <!-- Generator: Adobe Illustrator 29.2.1, SVG Export Plug-In . SVG Version: 2.1.0 Build 116)  -->
  <path d="M138.1,201.2c-42.1,0-76.5,34.4-76.5,76.5s34.4,76.5,76.5,76.5,76.5-34.2,76.5-76.5-34.2-76.5-76.5-76.5ZM138.1,326.8c-26.1,0-47.2-21.5-47.2-49.1s21-49.1,47.2-49.1,47.2,21.5,47.2,49.1-21,49.1-47.2,49.1Z"/>
  <path d="M292,243.7c-13.8,0-27.2,5.5-34.2,14.9v-12.8h-27.6v148.8h27.6v-53.8c7,8.7,20,13.4,34.2,13.4,29.8,0,53.1-23.4,53.1-55.3s-23.4-55.3-53.1-55.3ZM287.3,330.2c-15.7,0-29.8-12.3-29.8-31.2s14-31.2,29.8-31.2,29.8,12.3,29.8,31.2-14,31.2-29.8,31.2Z"/>
  <path d="M410.1,243.7c-30.2,0-54,23.6-54,55.3s20.8,55.3,54.8,55.3,45.7-16.8,51.2-35.7h-27c-3.4,7.9-13,13.4-24.4,13.4s-25.1-10-27.6-24.2h80.3v-10.8c0-28.9-20.2-53.1-53.3-53.1ZM383.4,288.1c3-13.4,14-22.1,27.4-22.1s25.1,9.4,26.4,22.1h-53.8Z"/>
  <path d="M537,243.7c-12.3,0-25.3,5.5-31.2,14.7v-12.5h-27.6v106.3h27.6v-57.2c0-16.6,8.9-27.4,23.4-27.4s20.6,10.2,20.6,24.4v60.1h27.6v-64.6c0-26.4-16.2-43.8-40.4-43.8Z"/>
  <path d="M648.2,203.3l-60.1,148.8h29.5l12.8-32.5h68.4l12.8,32.5h30l-59.7-148.8h-33.6ZM639.9,294.9l24.7-62.3,24.4,62.3h-49.1Z"/>
  <path d="M780.8,203.3h-28.1v148.8h28.1v-148.8Z"/>
</svg>